<?xml version="1.0" standalone="no"?>
<!DOCTYPE svg PUBLIC "-//W3C//DTD SVG 20010904//EN"
 "http://www.w3.org/TR/2001/REC-SVG-20010904/DTD/svg10.dtd">
<svg version="1.0" xmlns="http://www.w3.org/2000/svg"
 width="450.000000pt" height="360.000000pt" viewBox="0 0 450.000000 360.000000"
 preserveAspectRatio="xMidYMid meet">

<g transform="translate(0.000000,360.000000) scale(0.100000,-0.100000)"
fill="#000000" stroke="none">
<path d="M2150 2618 c-54 -28 -59 -42 -23 -57 16 -6 35 -21 42 -33 12 -19 11
-20 -6 -13 -57 23 -47 39 -97 -158 -13 -54 -26 -100 -28 -102 -2 -2 -40 7 -85
20 -133 39 -262 49 -455 35 -375 -27 -692 52 -981 244 l-28 19 6 -29 c4 -16
23 -63 42 -104 48 -100 132 -184 233 -233 121 -60 456 -116 628 -105 93 6 69
-4 -53 -23 -119 -19 -461 -17 -573 3 -45 8 -82 10 -82 5 0 -5 26 -34 58 -66
67 -67 159 -115 249 -130 103 -16 360 8 512 50 40 11 75 18 77 16 7 -7 -225
-94 -337 -127 -59 -17 -147 -39 -195 -49 l-88 -18 44 -33 c95 -69 194 -100
326 -100 157 0 285 56 387 169 55 62 59 53 15 -36 -35 -72 -132 -182 -210
-240 l-51 -37 34 -9 c56 -15 160 -3 222 26 31 14 77 46 102 72 47 47 95 133
95 172 0 42 17 32 24 -14 10 -76 7 -184 -8 -248 -8 -33 -13 -61 -12 -63 8 -7
109 116 141 171 32 55 35 58 29 27 -23 -117 -100 -275 -182 -370 -41 -48 -42
-50 -20 -55 13 -3 96 -21 186 -39 l162 -34 163 34 c89 18 172 36 185 39 22 5
21 7 -20 55 -82 95 -159 253 -182 370 -6 31 -3 28 29 -27 32 -55 133 -178 141
-171 1 2 -4 30 -12 63 -21 91 -16 285 7 285 5 0 9 -10 9 -22 0 -40 47 -126 95
-173 25 -26 71 -58 102 -72 62 -29 166 -41 222 -26 l34 9 -51 37 c-78 58 -175
168 -210 240 -44 89 -40 98 16 36 101 -113 229 -169 386 -169 132 0 231 31
326 100 l44 33 -88 18 c-48 10 -136 32 -195 49 -112 33 -344 120 -337 127 2 2
37 -5 77 -16 152 -42 409 -66 512 -50 90 15 182 63 250 130 31 32 57 61 57 66
0 5 -37 3 -82 -5 -111 -20 -453 -22 -573 -3 -114 17 -135 28 -44 23 89 -5 259
12 419 43 160 32 251 74 336 159 60 60 123 170 139 240 l6 29 -28 -19 c-65
-43 -183 -106 -253 -136 -227 -95 -456 -129 -732 -108 -183 14 -320 3 -451
-35 -45 -13 -83 -22 -85 -20 -2 2 -19 63 -37 135 -18 72 -36 134 -39 137 -3 4
-18 1 -32 -6 -15 -6 -28 -10 -31 -8 -5 5 51 53 68 59 20 7 0 29 -45 49 -58 26
-140 25 -196 -3z m149 -148 c21 -30 21 -30 2 -67 -10 -21 -24 -58 -31 -83
l-12 -45 -17 55 c-10 30 -25 68 -33 85 -15 28 -15 30 15 61 34 36 45 35 76 -6z"/>
</g>
</svg>
